<svg width="40" height="40" viewBox="0 0 40 40" fill="none" xmlns="http://www.w3.org/2000/svg">
<g id="&#229;&#186;&#149;&#233;&#131;&#168;icon/&#231;&#173;&#190;&#229;&#136;&#176;">
<rect x="0.5" y="0.5" width="39" height="39" rx="19.5" fill="white"/>
<rect x="0.5" y="0.5" width="39" height="39" rx="19.5" stroke="#71BF00"/>
<g id="business-management-agreement--Streamline-Freehand" clip-path="url(#clip0_19_14207)">
<g id="Group">
<path id="Vector" fill-rule="evenodd" clip-rule="evenodd" d="M16 27.68C15.8702 27.4359 15.7125 27.2077 15.53 27C15.2773 26.7387 14.9954 26.5072 14.69 26.31C15.03 25.9588 15.2907 25.5387 15.4546 25.0781C15.6184 24.6175 15.6817 24.1271 15.64 23.64C15.6347 22.8063 15.2991 22.0087 14.7068 21.422C14.1145 20.8353 13.3137 20.5074 12.48 20.51C11.5883 20.4883 10.7237 20.8179 10.0727 21.4277C9.42172 22.0375 9.03646 22.8788 9 23.77C8.98399 24.3315 9.13139 24.8856 9.4243 25.3649C9.71722 25.8442 10.143 26.2281 10.65 26.47C10.2298 26.6922 9.83133 26.9533 9.46 27.25C9.10376 27.5571 8.79387 27.9141 8.54 28.31C8.31108 28.6552 8.15412 29.043 8.07852 29.4502C8.00292 29.8574 8.01022 30.2757 8.1 30.68C8.09991 30.7238 8.1088 30.7671 8.12612 30.8073C8.14344 30.8475 8.16882 30.8837 8.20068 30.9137C8.23255 30.9437 8.27023 30.9668 8.31139 30.9817C8.35255 30.9965 8.39632 31.0028 8.44 31C8.52404 30.9876 8.60004 30.9433 8.6522 30.8762C8.70435 30.8091 8.72864 30.7246 8.72 30.64C8.71537 30.1757 8.85515 29.7214 9.12 29.34C9.37771 28.9431 9.67235 28.5715 10 28.23C10.49 27.69 11 27.15 11.42 26.74C11.7245 26.8161 12.0363 26.8597 12.35 26.87C12.4164 26.8575 12.4764 26.8222 12.5196 26.7702C12.5628 26.7181 12.5864 26.6527 12.5864 26.585C12.5864 26.5174 12.5628 26.4519 12.5196 26.3999C12.4764 26.3479 12.4164 26.3125 12.35 26.3C10.58 26.12 9.81 25 9.9 23.81C9.96829 23.1795 10.2784 22.6 10.7652 22.1935C11.2519 21.7869 11.8774 21.5849 12.51 21.63C13.0875 21.6193 13.6458 21.8371 14.0635 22.236C14.4811 22.6349 14.7243 23.1827 14.74 23.76C14.8591 24.3457 14.7434 24.9546 14.418 25.4558C14.0926 25.9571 13.5834 26.3105 13 26.44C12.9141 26.4501 12.8357 26.4935 12.7814 26.5608C12.7272 26.6281 12.7016 26.714 12.71 26.8C12.7246 26.883 12.7696 26.9576 12.8361 27.0094C12.9026 27.0611 12.986 27.0863 13.07 27.08C13.4187 27.0414 13.7576 26.9397 14.07 26.78C14.3091 27.062 14.5296 27.3593 14.73 27.67C14.85 27.85 14.96 28.04 15.06 28.22C15.16 28.4 15.28 28.59 15.38 28.78C15.6262 29.2524 15.8335 29.744 16 30.25C16.0192 30.3325 16.0693 30.4044 16.14 30.451C16.2108 30.4975 16.2967 30.5151 16.38 30.5C16.4221 30.493 16.4623 30.4774 16.4981 30.4541C16.5339 30.4308 16.5645 30.4003 16.588 30.3646C16.6115 30.329 16.6273 30.2888 16.6345 30.2467C16.6418 30.2046 16.6402 30.1615 16.63 30.12C16.5962 29.5371 16.4956 28.96 16.33 28.4C16.2409 28.151 16.1305 27.9101 16 27.68Z" fill="black"/>
<path id="Vector_2" fill-rule="evenodd" clip-rule="evenodd" d="M31.69 28.4C31.6073 28.1516 31.5036 27.9107 31.38 27.68C31.2508 27.4503 31.0965 27.2357 30.92 27.04C30.6673 26.7786 30.3854 26.5471 30.08 26.35C30.4289 26.003 30.6989 25.5849 30.8715 25.1241C31.0441 24.6633 31.1152 24.1707 31.08 23.68C31.0747 22.8463 30.7391 22.0487 30.1468 21.462C29.5545 20.8752 28.7537 20.5473 27.92 20.55C27.0315 20.5226 26.1675 20.8443 25.5133 21.4462C24.8591 22.0481 24.4666 22.8822 24.42 23.77C24.3952 24.3244 24.5311 24.8742 24.8114 25.3532C25.0918 25.8322 25.5045 26.22 26 26.47C25.5784 26.6897 25.1797 26.951 24.81 27.25C24.4511 27.5544 24.1409 27.9118 23.89 28.31C23.6611 28.6551 23.5041 29.0429 23.4285 29.4501C23.3529 29.8573 23.3602 30.2756 23.45 30.68C23.4694 30.7565 23.5164 30.8232 23.5821 30.8672C23.6477 30.9112 23.7273 30.9293 23.8055 30.9182C23.8837 30.907 23.955 30.8673 24.0057 30.8067C24.0563 30.7461 24.0828 30.6689 24.08 30.59C24.084 30.1254 24.2268 29.6727 24.49 29.29C24.7376 28.9121 25.0187 28.5573 25.33 28.23C25.82 27.69 26.33 27.15 26.75 26.74C27.0545 26.816 27.3663 26.8596 27.68 26.87C27.7464 26.8575 27.8064 26.8221 27.8496 26.7701C27.8928 26.718 27.9164 26.6526 27.9164 26.585C27.9164 26.5173 27.8928 26.4519 27.8496 26.3998C27.8064 26.3478 27.7464 26.3125 27.68 26.3C26 26.12 25.2 25 25.29 23.81C25.3583 23.1794 25.6684 22.5999 26.1552 22.1934C26.6419 21.7868 27.2674 21.5848 27.9 21.63C28.4775 21.6192 29.0358 21.837 29.4535 22.2359C29.8711 22.6348 30.1143 23.1826 30.13 23.76C30.248 24.3512 30.1269 24.9652 29.7933 25.4675C29.4597 25.9697 28.9408 26.3194 28.35 26.44C28.308 26.4446 28.2673 26.4574 28.2302 26.4777C28.1931 26.498 28.1604 26.5255 28.134 26.5584C28.1075 26.5914 28.0878 26.6292 28.076 26.6698C28.0641 26.7104 28.0604 26.7529 28.065 26.795C28.0696 26.837 28.0824 26.8777 28.1028 26.9147C28.1231 26.9518 28.1505 26.9845 28.1835 27.011C28.2164 27.0374 28.2543 27.0572 28.2949 27.069C28.3355 27.0808 28.378 27.0845 28.42 27.08C28.7687 27.0413 29.1076 26.9396 29.42 26.78C29.6591 27.062 29.8796 27.3592 30.08 27.67C30.2 27.85 30.31 28.04 30.41 28.22C30.51 28.4 30.63 28.59 30.73 28.78C30.9728 29.2526 31.1768 29.7443 31.34 30.25C31.3592 30.3324 31.4093 30.4043 31.48 30.4509C31.5508 30.4974 31.6367 30.515 31.72 30.5C31.7615 30.4916 31.8009 30.4751 31.8359 30.4515C31.871 30.4278 31.901 30.3974 31.9243 30.3621C31.9475 30.3268 31.9635 30.2872 31.9714 30.2456C31.9792 30.204 31.9788 30.1613 31.97 30.12C31.9427 29.5378 31.8488 28.9607 31.69 28.4Z" fill="black"/>
<path id="Vector_3" fill-rule="evenodd" clip-rule="evenodd" d="M20.93 14.45C20.78 14.75 20.65 15.05 20.49 15.45L20.16 16.32L19.93 17L19.78 17.5L19.14 16.93L18.34 16.23L17.07 15.06C17.0439 15.0334 17.0128 15.0122 16.9785 14.9978C16.9441 14.9834 16.9072 14.9759 16.87 14.9759C16.8327 14.9759 16.7959 14.9834 16.7615 14.9978C16.7272 15.0122 16.6961 15.0334 16.67 15.06C16.6434 15.0861 16.6223 15.1172 16.6078 15.1515C16.5934 15.1859 16.586 15.2227 16.586 15.26C16.586 15.2972 16.5934 15.3341 16.6078 15.3685C16.6223 15.4028 16.6434 15.4339 16.67 15.46L17.85 16.76L18.58 17.52L19.3 18.29C19.4 18.39 19.5 18.65 19.59 18.73C19.6878 18.8143 19.811 18.8636 19.94 18.87C20.0229 18.8696 20.1046 18.8506 20.179 18.8142C20.2535 18.7778 20.3188 18.7251 20.37 18.66C20.4824 18.5246 20.5734 18.3728 20.64 18.21C20.77 17.92 20.86 17.57 20.94 17.35L21.18 16.67L21.51 15.85L22.35 14C22.7715 13.1791 23.2528 12.3903 23.79 11.64C24.325 10.9053 24.9424 10.2343 25.63 9.63998C25.6963 9.58694 25.7388 9.50973 25.7482 9.42534C25.7576 9.34095 25.733 9.25629 25.68 9.18998C25.627 9.12368 25.5497 9.08116 25.4654 9.07178C25.381 9.06241 25.2963 9.08694 25.23 9.13998C24.4528 9.72057 23.7478 10.392 23.13 11.14C22.5064 11.8853 21.9414 12.6776 21.44 13.51C21.24 13.86 21.08 14.15 20.93 14.45Z" fill="#71BF00"/>
<path id="Vector_4" fill-rule="evenodd" clip-rule="evenodd" d="M27.81 14.5901C27.6241 14.1144 27.3788 13.6642 27.08 13.2501C26.6481 12.6584 26.184 12.0909 25.69 11.5501C25.6423 11.493 25.5738 11.4573 25.4997 11.4508C25.4257 11.4442 25.352 11.4673 25.295 11.5151C25.238 11.5628 25.2023 11.6312 25.1957 11.7053C25.1891 11.7794 25.2123 11.853 25.26 11.9101C25.7209 12.4526 26.1515 13.0201 26.55 13.6101C26.8095 13.9876 27.018 14.3979 27.17 14.8301C27.4347 15.4899 27.4981 16.2134 27.3521 16.9092C27.2062 17.6051 26.8575 18.2421 26.35 18.7401C25.5115 19.4557 24.5342 19.9903 23.4793 20.3104C22.4244 20.6305 21.3148 20.7291 20.22 20.6001C17.28 20.4501 15.29 19.7101 14.09 18.6701C13.5593 18.259 13.1647 17.6976 12.9578 17.059C12.7509 16.4204 12.7412 15.7342 12.93 15.0901C13.68 12.5501 17.14 10.4001 22.17 11.1701C22.212 11.1773 22.2551 11.1762 22.2966 11.1667C22.3382 11.1573 22.3776 11.1398 22.4124 11.1152C22.4472 11.0906 22.4768 11.0594 22.4996 11.0233C22.5223 10.9873 22.5378 10.9471 22.545 10.9051C22.5522 10.863 22.5511 10.82 22.5417 10.7784C22.5323 10.7368 22.5148 10.6975 22.4902 10.6627C22.4656 10.6279 22.4343 10.5982 22.3983 10.5755C22.3622 10.5527 22.322 10.5373 22.28 10.5301C16.73 9.53006 12.91 12.0001 12 14.8001C11.38 16.7101 12 18.8001 14.39 20.2101C16.1675 21.1454 18.1416 21.6457 20.15 21.6701C21.3916 21.7755 22.6415 21.6219 23.8206 21.2191C24.9998 20.8163 26.0824 20.173 27 19.3301C27.5884 18.7085 27.9793 17.9265 28.1235 17.0828C28.2676 16.2392 28.1586 15.3717 27.81 14.5901Z" fill="#71BF00"/>
</g>
</g>
</g>
<defs>
<clipPath id="clip0_19_14207">
<rect width="24" height="24" fill="white" transform="translate(8 8)"/>
</clipPath>
</defs>
</svg>
